<?xml version="1.0" encoding="utf-8"?>
<!-- Generator: Adobe Illustrator 23.0.6, SVG Export Plug-In . SVG Version: 6.00 Build 0)  -->
<svg version="1.1" id="_x2014_ÎÓÈ_x5F_1" xmlns="http://www.w3.org/2000/svg" xmlns:xlink="http://www.w3.org/1999/xlink"
	 x="0px" y="0px" viewBox="0 0 600 600" style="enable-background:new 0 0 300 300;" xml:space="preserve" width="400" height="400">
<style type="text/css">
	.st0{fill:#2B3A40;}
	.st1{fill:#F59F20;}
	.st2{fill:#004266;}
	.st3{fill:#F15A24;}
	.st4{fill:#393939;}
	.st5{fill:#FFFFFF;}
	.st6{fill:#EEF1F2;}
</style>
<g>
	<text transform="matrix(1 0 0 1 1134.0254 -704.4409)" class="st5" style="font-family:'Raleway-Bold'; font-size:139.6364px;">Descarga el White Paper</text>
</g>
<g>
	<g>
		<g>
			<g>
				<circle class="st0" cx="300.8" cy="297.6" r="228.3"/>
			</g>
		</g>
		<g>
			<g>
				<path class="st1" d="M352.3,194.3c23.8,12.8,36.4,31,42.8,40.4c8.9,13.1,13.9,25.4,16.7,33.8c3.4,12,6.9,30.3,5.2,52.4
					c-1.2,15.4-4.6,28.3-8,37.9c49.5,25.4,99,50.9,148.5,76.3C628.8,297,579.2,125.8,442.9,47.8c-44-25.2-91.9-37.7-139.3-38.6
					c0.4,57.3,0.8,114.6,1.1,171.9l0,0C316.6,181.7,334,184.5,352.3,194.3z"/>
			</g>
		</g>
		<g>
			<g>
				<path class="st2" d="M182.2,309.7c0.5-51.6,34.6-88.7,34.6-88.7c27.9-30.3,61.7-38.1,73.3-40.2c-0.6-56.4-1.2-112.9-1.7-169.3
					C133,18.8,9.5,147.4,10,304.5c0.2,50.8,13.3,98.4,36.2,140c48.5-29,97-58,145.5-87c-1-2.3-2-4.7-2.9-7.4
					c-0.4-1.2-0.8-2.3-1.1-3.4C187.7,346.6,182.1,329.7,182.2,309.7z"/>
			</g>
		</g>
		<g>
			<g>
				<path class="st3" d="M364.8,399.6c-45,25.2-94.1,14.1-94.1,14.1c-11.9-3-29.6-8.9-47.9-21.9c-11.8-8.4-20.6-17.3-26.8-24.7
					c-47.6,29.6-95.1,59.2-142.7,88.7c83.6,131.2,256.5,174.4,392.5,95.9c44-25.4,78.8-60.5,103.4-101
					c-50.1-26.5-100.2-53.1-150.3-79.6c0,0-0.1,0-0.1,0l-4.8,5.4C394.1,376.5,382.2,389.8,364.8,399.6z"/>
			</g>
		</g>
		<g>
			<g>
				
					<ellipse transform="matrix(0.7071 -0.7071 0.7071 0.7071 -120.0262 298.2135)" class="st4" cx="300" cy="294" rx="134.5" ry="134.5"/>
			</g>
		</g>
		<g>
			<g>
				<g>
					<path class="st2" d="M159.9,242.8c-0.7,6.3-3.3,24.2-14.1,36.3c-5.6,6.3-10.5,7.7-11.9,8.1c-5.9,1.6-11.1,0-13.6-0.9
						c0-2,0-4,0-6c2.2,0.6,6.8,1.4,11.9-0.4c1.2-0.4,5.5-2.1,10.4-8.7c6.9-9.2,8.6-19.6,9-25.8C154.3,244.6,157.1,243.7,159.9,242.8
						z"/>
				</g>
				<g>
					<path class="st5" d="M128.7,289.2c-3.5,0-6.6-0.8-8.8-1.7l-0.8-0.3v-8.6l1.6,0.4c2.7,0.7,6.8,1.2,11.1-0.3
						c3.2-1.1,6.7-4.1,9.8-8.2c6.4-8.6,8.3-18.4,8.8-25.1l0.1-0.9l11-3.5l-0.2,1.9c-1,8.9-4.1,25.5-14.4,37
						c-3.9,4.4-8.3,7.4-12.5,8.5C132.3,289,130.5,289.2,128.7,289.2z M121.6,285.4c3,1,7.3,1.8,12,0.6c3.7-1,7.7-3.7,11.2-7.7
						c9.1-10.2,12.4-24.8,13.6-33.7l-5.6,1.8c-0.6,7-2.7,16.9-9.2,25.6c-4.3,5.8-8.3,8.2-10.9,9.1c-4.1,1.5-8.1,1.3-11,0.8V285.4z"
						/>
				</g>
			</g>
			<g>
				<g>
					<path class="st2" d="M150.3,211.2c-8.5-25.8-33.3-41.1-56.5-37.1c-17.3,3-31.9,16.5-38,34.4c-3.3,0.7-6.7,1.4-10,2.1
						c7.2-29.1,33.9-48.6,61.9-46.5c24.5,1.8,45.8,19.8,52.5,44.8C156.9,209.7,153.6,210.4,150.3,211.2z"/>
				</g>
				<g>
					<path class="st5" d="M149.4,212.7l-0.4-1.1c-4-12.1-11.9-22.4-22.2-29.1c-10.1-6.5-21.8-9.1-32.8-7.2
						c-8.2,1.4-16,5.3-22.6,11.3c-6.5,5.9-11.5,13.6-14.4,22.3l-0.2,0.7l-12.7,2.6l0.5-2c3.5-14.3,11.9-27,23.6-35.7
						c11.6-8.6,25.7-12.8,39.6-11.8c12.3,0.9,23.9,5.8,33.7,14c9.7,8.3,16.6,19.2,20,31.7l0.3,1.3L149.4,212.7z M101.2,172.2
						c9.3,0,18.6,2.8,27,8.2c10.5,6.8,18.6,17.2,22.9,29.3l7.5-1.7c-3.3-11.4-9.8-21.5-18.8-29.2c-9.3-7.9-20.4-12.5-32.2-13.4
						c-13.3-1-26.8,3-37.9,11.3c-10.7,8-18.5,19.4-22.1,32.3l7.2-1.5c3.1-8.8,8.3-16.6,14.9-22.7c6.9-6.3,15.2-10.4,23.9-11.9
						C96.1,172.4,98.7,172.2,101.2,172.2z"/>
				</g>
			</g>
			<g>
				<g>
					<path class="st2" d="M60.6,227.9c0,13.9,1.9,18-1.1,20.3c-3.9,3-11.7-0.1-16-3.6c-7.3-6-7.4-15.4-7.3-18.1
						c0.1-2,0.4-9.8,6.6-15.4c4.6-4.1,12.8-7.4,16.8-4.3C62.5,209.1,60.5,213.4,60.6,227.9z"/>
				</g>
				<g>
					<path class="st5" d="M55.3,250.7c-1.2,0-2.6-0.2-4.1-0.6c-3-0.8-6.2-2.5-8.6-4.5c-7.5-6.1-8-15.4-7.8-19.1
						c0.3-8.6,4-13.6,7-16.3c4.7-4.2,13.6-8,18.4-4.4c2.5,2,2.4,4.8,2,10.4c-0.2,3-0.4,6.7-0.4,11.7l0,0c0,4.6,0.2,8.1,0.4,10.9
						c0.3,5.6,0.5,8.5-2,10.4C59,250.2,57.3,250.7,55.3,250.7z M55.4,206.8c-1.1,0-2.3,0.2-3.7,0.6c-2.9,0.9-5.9,2.6-8.1,4.6
						c-3.9,3.5-5.9,8.4-6.2,14.5c-0.1,3.3,0.3,11.7,6.9,17c4.4,3.6,11.4,5.9,14.4,3.6c1.4-1.1,1.4-2.9,1-8.3
						c-0.2-2.8-0.4-6.4-0.4-11.1l0,0c0-5.1,0.2-9,0.4-11.9c0.3-5.4,0.4-7.1-1-8.2C57.9,207.2,56.7,206.8,55.4,206.8z"/>
				</g>
			</g>
			<g>
				<g>
					<path class="st2" d="M144.2,227.9c0,13.9-1.9,18,1.1,20.3c3.9,3,11.7-0.1,16-3.6c7.3-6,7.4-15.4,7.3-18.1
						c-0.1-2-0.4-9.8-6.6-15.4c-4.6-4.1-12.8-7.4-16.8-4.3C142.2,209.1,144.2,213.4,144.2,227.9z"/>
				</g>
				<g>
					<path class="st5" d="M149.4,250.7c-1.8,0-3.5-0.4-4.9-1.5c-2.5-2-2.4-4.8-2-10.4c0.2-2.8,0.4-6.3,0.4-10.9
						c0-5-0.2-8.7-0.4-11.7c-0.3-5.6-0.5-8.4,2-10.4c4.7-3.7,13.7,0.2,18.4,4.4c3,2.7,6.7,7.8,7,16.3c0.1,3.7-0.3,13-7.8,19.1
						C158.9,248.2,153.8,250.7,149.4,250.7z M149.4,206.8c-1.4,0-2.5,0.3-3.3,0.9c-1.4,1.1-1.4,2.8-1,8.2c0.2,2.9,0.4,6.8,0.4,11.9
						l0,0c0,4.7-0.2,8.2-0.4,11.1c-0.3,5.4-0.4,7.2,1,8.3c3,2.4,10,0,14.4-3.6c6.6-5.4,7-13.7,6.9-17c-0.2-6.2-2.3-11.1-6.2-14.5
						c-2.2-2-5.3-3.7-8.1-4.6C151.7,207.1,150.5,206.8,149.4,206.8z"/>
				</g>
			</g>
			<g>
				<g>
					<ellipse class="st2" cx="106.9" cy="283.4" rx="15.6" ry="11.7"/>
				</g>
				<g>
					<path class="st5" d="M106.9,296.3c-9.3,0-16.9-5.8-16.9-12.9c0-7.1,7.6-12.9,16.9-12.9s16.9,5.8,16.9,12.9
						C123.8,290.5,116.2,296.3,106.9,296.3z M106.9,273c-7.9,0-14.3,4.7-14.3,10.4c0,5.7,6.4,10.4,14.3,10.4s14.3-4.7,14.3-10.4
						C121.2,277.6,114.8,273,106.9,273z"/>
				</g>
			</g>
		</g>
		<g>
			<g>
				<g>
					<path class="st6" d="M559.4,220.6c-2.4,0-4.8-0.8-6.7-2.5l-0.1-0.1c-6.5-6.5-30.6-27.5-66.5-26.5c-13.1,0.4-25.8,3.6-37.7,9.5
						c-6.8,3.4-13.4,7.8-19,12.6l-0.2,0.1l-0.2,0.1c-5.7,2.2-12.1,0.3-14.6-4.4c-2.3-4.3,0-8.8,0.4-9.7l0.1-0.2l0.1-0.1
						c4.6-4.4,12.5-10.8,23.5-16.7c16.1-8.5,33.4-12.8,51.3-12.6c43.2,0.4,70.6,26.5,78,34.5l0.1,0.1l0.1,0.1
						c2.8,4.2,2.1,9.9-1.8,13.2C564.2,219.8,561.8,220.6,559.4,220.6z M554.3,216.2c2.9,2.4,7.3,2.4,10.1,0c2.9-2.4,3.5-6.6,1.4-9.7
						c-7.3-7.9-34-33.2-76-33.6c-0.3,0-0.6,0-1,0c-17.1,0-33.6,4.1-49.1,12.3c-10.7,5.6-18.3,11.9-22.8,16.1
						c-0.4,0.8-1.9,4.1-0.3,7.1c1.6,3,6.2,5.1,11.2,3.2c5.7-4.9,12.4-9.3,19.3-12.8c12.3-6.1,25.3-9.4,38.8-9.8
						C522.9,188,547.6,209.5,554.3,216.2z"/>
				</g>
			</g>
			<g>
				<g>
					<path class="st6" d="M533,241.4c-1.8,0-3.6-0.5-5.2-1.6l-0.1-0.1l-0.1-0.1c-3.5-3.9-16.6-16.5-37.4-17.5
						c-21.3-1-35.7,11-39.6,14.6l-0.1,0.1l-0.2,0.1c-3.9,1.9-8.7,0.9-11.2-2.4c-2.2-2.9-2.3-6.9-0.2-10.1l0.1-0.2l0.1-0.1
						c5.1-4.2,10.7-7.8,16.7-10.6c14.6-7,27-8.3,34.8-8.1c25.5,0.4,43.6,16.1,50.3,22.8l0.1,0.1l0.1,0.2c1.9,3.7,1,8.1-2.2,10.7
						C537.2,240.7,535.1,241.4,533,241.4z M529.4,237.8c2.4,1.6,5.6,1.4,7.9-0.4c2.2-1.8,2.9-4.9,1.7-7.4
						c-6.5-6.6-23.9-21.5-48.3-21.9c-7.6-0.1-19.5,1.1-33.7,7.9c-5.7,2.7-11.1,6.1-16,10.1c-1.4,2.2-1.3,5,0.2,6.9
						c1.8,2.3,5.1,3,7.9,1.8c4.3-4,19.2-16.2,41.3-15.2C511.9,220.5,525.5,233.6,529.4,237.8z"/>
				</g>
			</g>
			<g>
				<g>
					<path class="st6" d="M512.2,259.7c-1.6,0-3.2-0.5-4.5-1.5l-0.1-0.1l-0.1-0.1c-2.2-2.4-8.4-7.9-18-8.6c-11.9-0.9-20,6.5-21.5,8
						l-0.2,0.2l-0.3,0.1c-2.6,1-5.6,0.4-7.6-1.6c-2.1-2-2.8-5.1-1.7-7.8l0.1-0.2l0.2-0.2c2.9-3,13.7-12.8,30.3-12.5
						c16.9,0.3,27.3,10.8,30,14l0.1,0.2l0.1,0.2c1.2,3,0.2,6.5-2.5,8.4C515.3,259.2,513.7,259.7,512.2,259.7z M509.3,256.2
						c1.7,1.3,4.1,1.3,5.8,0c1.6-1.2,2.3-3.3,1.7-5.2c-2.8-3.2-12.5-12.6-28-12.9c-0.3,0-0.5,0-0.8,0c-14.9,0-24.6,8.5-27.5,11.5
						c-0.6,1.7-0.1,3.5,1.2,4.8c1.2,1.2,3.1,1.6,4.8,1.1c2.6-2.5,11-9.4,23.3-8.5C500,247.7,506.8,253.6,509.3,256.2z"/>
				</g>
			</g>
			<g>
				<g>
					<path class="st6" d="M487.6,285.4c-7.3,0-13.2-5.8-13.2-12.9c0-7.1,5.9-12.9,13.2-12.9s13.2,5.8,13.2,12.9
						C500.8,279.6,494.9,285.4,487.6,285.4z M487.6,262.2c-5.9,0-10.6,4.6-10.6,10.4s4.8,10.4,10.6,10.4c5.9,0,10.6-4.6,10.6-10.4
						S493.5,262.2,487.6,262.2z"/>
				</g>
			</g>
		</g>
		<g>
			<g>
				<g>
					<g>
						<path class="st3" d="M325.8,444.5h-51.7l-0.1-0.1l-0.2,0.1h-35.4c-0.7,0-1.3,0.7-1.3,1.6V487c0,0.9,0.6,1.6,1.3,1.6h19.3
							l6.1,26.4l15.2-25.5l0.3-0.8h46.4c0.7,0,1.3-0.7,1.3-1.6v-40.9C327.1,445.2,326.5,444.5,325.8,444.5z"/>
					</g>
					<g>
						<path class="st5" d="M263.3,518.4l-6.6-28.5h-18.3c-1.4,0-2.6-1.3-2.6-2.9v-40.9c0-1.6,1.2-2.9,2.6-2.9h35.1l0.9-0.5l0.4,0.5
							h51c1.4,0,2.6,1.3,2.6,2.9V487c0,1.6-1.2,2.9-2.6,2.9h-45.6l-0.1,0.2L263.3,518.4z M238.5,487.4h20.2l5.6,24.2l13.5-22.7
							l0.6-1.5h47.2c0-0.1,0.1-0.2,0.1-0.4v-40.9c0-0.2-0.1-0.3-0.1-0.4h-87.2c0,0.1-0.1,0.2-0.1,0.4V487
							C238.4,487.2,238.5,487.3,238.5,487.4z"/>
					</g>
				</g>
				<g>
					<g>
						<path class="st3" d="M325.8,444.5h-51.7l-0.1-0.1l-0.2,0.1h-35.4c-0.7,0-1.3,0.7-1.3,1.6V487c0,0.9,0.6,1.6,1.3,1.6h19.3
							l6.1,26.4l15.2-25.5l0.3-0.8h46.4c0.7,0,1.3-0.7,1.3-1.6v-40.9C327.1,445.2,326.5,444.5,325.8,444.5z"/>
					</g>
					<g>
						<path class="st5" d="M263.3,518.4l-6.6-28.5h-18.3c-1.4,0-2.6-1.3-2.6-2.9v-40.9c0-1.6,1.2-2.9,2.6-2.9h35.1l0.9-0.5l0.4,0.5
							h51c1.4,0,2.6,1.3,2.6,2.9V487c0,1.6-1.2,2.9-2.6,2.9h-45.6l-0.1,0.2L263.3,518.4z M238.5,487.4h20.2l5.6,24.2l13.5-22.7
							l0.6-1.5h47.2c0-0.1,0.1-0.2,0.1-0.4v-40.9c0-0.2-0.1-0.3-0.1-0.4h-87.2c0,0.1-0.1,0.2-0.1,0.4V487
							C238.4,487.2,238.5,487.3,238.5,487.4z"/>
					</g>
				</g>
			</g>
			<g>
				<g>
					<g>
						<path class="st3" d="M283.4,507.4h51.7l0.1-0.1l0.2,0.1h35.4c0.7,0,1.3,0.7,1.3,1.6V550c0,0.9-0.6,1.6-1.3,1.6h-19.3
							l-6.1,26.4l-15.2-25.5l-0.3-0.8h-46.4c-0.7,0-1.3-0.7-1.3-1.6v-40.9C282.1,508.2,282.7,507.4,283.4,507.4z"/>
					</g>
					<g>
						<path class="st5" d="M345.9,581.3L329,552.9h-45.6c-1.4,0-2.6-1.3-2.6-2.9v-40.9c0-1.6,1.2-2.9,2.6-2.9h51l0.4-0.5l0.9,0.5
							h35.1c1.4,0,2.6,1.3,2.6,2.9V550c0,1.6-1.2,2.9-2.6,2.9h-18.3L345.9,581.3z M331.3,551.8l13.5,22.7l5.6-24.2h20.2
							c0-0.1,0.1-0.2,0.1-0.4v-40.9c0-0.2-0.1-0.3-0.1-0.4h-87.2c0,0.1-0.1,0.2-0.1,0.4V550c0,0.2,0.1,0.3,0.1,0.4h47.2L331.3,551.8
							z"/>
					</g>
				</g>
				<g>
					<g>
						<path class="st3" d="M283.4,507.4h51.7l0.1-0.1l0.2,0.1h35.4c0.7,0,1.3,0.7,1.3,1.6V550c0,0.9-0.6,1.6-1.3,1.6h-19.3
							l-6.1,26.4l-15.2-25.5l-0.3-0.8h-46.4c-0.7,0-1.3-0.7-1.3-1.6v-40.9C282.1,508.2,282.7,507.4,283.4,507.4z"/>
					</g>
					<g>
						<path class="st5" d="M345.9,581.3L329,552.9h-45.6c-1.4,0-2.6-1.3-2.6-2.9v-40.9c0-1.6,1.2-2.9,2.6-2.9h51l0.4-0.5l0.9,0.5
							h35.1c1.4,0,2.6,1.3,2.6,2.9V550c0,1.6-1.2,2.9-2.6,2.9h-18.3L345.9,581.3z M331.3,551.8l13.5,22.7l5.6-24.2h20.2
							c0-0.1,0.1-0.2,0.1-0.4v-40.9c0-0.2-0.1-0.3-0.1-0.4h-87.2c0,0.1-0.1,0.2-0.1,0.4V550c0,0.2,0.1,0.3,0.1,0.4h47.2L331.3,551.8
							z"/>
					</g>
				</g>
			</g>
		</g>
	</g>
	<g>
		<path class="st5" d="M222.5,332.8v-74.4H237v74.4H222.5z"/>
		<path class="st5" d="M260.1,258.4l20.1,56.3l19.9-56.3h15.2l-29,74.4h-12.2l-29.2-74.4H260.1z"/>
		<path class="st5" d="M323.3,332.8v-74.4h32.9c3.4,0,6.6,0.7,9.5,2.1c2.9,1.4,5.4,3.3,7.5,5.7c2.1,2.3,3.7,5,4.9,8
			c1.2,3,1.8,6,1.8,9c0,4.8-1.2,9.2-3.6,13.2c-2.4,3.9-5.7,6.8-9.8,8.5l17,28h-16.2L352,307.9h-14.3v24.9H323.3z M337.8,295.2h18.1
			c1.3,0,2.6-0.3,3.7-0.9c1.2-0.6,2.1-1.5,3-2.6c0.8-1.1,1.5-2.4,2-3.8c0.5-1.5,0.7-3,0.7-4.7c0-1.7-0.3-3.4-0.8-4.8
			c-0.6-1.5-1.3-2.7-2.3-3.8c-0.9-1.1-2-1.9-3.2-2.5c-1.2-0.6-2.5-0.9-3.7-0.9h-17.5V295.2z"/>
	</g>
</g>
</svg>
